<svg width="384" height="512" viewBox="0 0 384 512" fill="none" xmlns="http://www.w3.org/2000/svg">
<g clip-path="url(#clip0_699_6)">
<path d="M377 105L279.1 7C274.6 2.5 268.5 0 262.1 0H256V128H384V121.9C384 115.6 381.5 109.5 377 105ZM224 136V0H24C10.7 0 0 10.7 0 24V488C0 501.3 10.7 512 24 512H360C373.3 512 384 501.3 384 488V160H248C234.8 160 224 149.2 224 136ZM64 72C64 67.58 67.58 64 72 64H152C156.42 64 160 67.58 160 72V88C160 92.42 156.42 96 152 96H72C67.58 96 64 92.42 64 88V72ZM64 152V136C64 131.58 67.58 128 72 128H152C156.42 128 160 131.58 160 136V152C160 156.42 156.42 160 152 160H72C67.58 160 64 156.42 64 152ZM208 415.88V440C208 444.42 204.42 448 200 448H184C179.58 448 176 444.42 176 440V415.71C164.71 415.13 153.73 411.19 144.63 404.36C140.73 401.43 140.53 395.59 144.06 392.22L155.81 381.01C158.58 378.37 162.7 378.25 165.94 380.28C169.81 382.7 174.2 384 178.76 384H206.87C213.37 384 218.67 378.08 218.67 370.81C218.67 364.86 215.06 359.62 209.9 358.08L164.9 344.58C146.31 339 133.32 321.16 133.32 301.19C133.32 276.67 152.37 256.75 175.99 256.12V232C175.99 227.58 179.57 224 183.99 224H199.99C204.41 224 207.99 227.58 207.99 232V256.29C219.28 256.87 230.26 260.8 239.36 267.64C243.26 270.57 243.46 276.41 239.93 279.78L228.18 290.99C225.41 293.63 221.29 293.75 218.05 291.72C214.18 289.29 209.79 288 205.23 288H177.12C170.62 288 165.32 293.92 165.32 301.19C165.32 307.14 168.93 312.38 174.09 313.92L219.09 327.42C237.68 333 250.67 350.84 250.67 370.81C250.67 395.34 231.62 415.25 208 415.88Z" fill="black"/>
</g>
<defs>
<clipPath id="clip0_699_6">
<rect width="384" height="512" fill="white"/>
</clipPath>
</defs>
</svg>
