<svg width="20" height="27" viewBox="0 0 20 27" fill="none" xmlns="http://www.w3.org/2000/svg">
<path d="M10 27C14.97 27 20 25.1451 20 21.6V5.4C20 1.8549 14.97 0 10 0C5.03 0 0 1.8549 0 5.4V21.6C0 25.1451 5.03 27 10 27ZM10 24.3C5.3475 24.3 2.5 22.5518 2.5 21.6V19.8882C4.42625 21.0195 7.22125 21.6 10 21.6C12.7788 21.6 15.5737 21.0195 17.5 19.8882V21.6C17.5 22.5518 14.6525 24.3 10 24.3ZM10 2.7C14.6525 2.7 17.5 4.44825 17.5 5.4C17.5 6.35175 14.6525 8.1 10 8.1C5.3475 8.1 2.5 6.35175 2.5 5.4C2.5 4.44825 5.3475 2.7 10 2.7ZM2.5 9.0882C4.42625 10.2195 7.22125 10.8 10 10.8C12.7788 10.8 15.5737 10.2195 17.5 9.0882V10.8C17.5 11.7517 14.6525 13.5 10 13.5C5.3475 13.5 2.5 11.7517 2.5 10.8V9.0882ZM2.5 14.4882C4.42625 15.6195 7.22125 16.2 10 16.2C12.7788 16.2 15.5737 15.6195 17.5 14.4882V16.2C17.5 17.1518 14.6525 18.9 10 18.9C5.3475 18.9 2.5 17.1518 2.5 16.2V14.4882Z" fill="white"/>
</svg>
