<svg width="20" height="20" viewBox="0 0 20 20" fill="none" xmlns="http://www.w3.org/2000/svg">
<path d="M12.5 4.5C12.5 5.16304 12.2366 5.79893 11.7678 6.26777C11.2989 6.73661 10.663 7 10 7C9.33696 7 8.70107 6.73661 8.23223 6.26777C7.76339 5.79893 7.5 5.16304 7.5 4.5C7.5 3.83696 7.76339 3.20107 8.23223 2.73223C8.70107 2.26339 9.33696 2 10 2C10.663 2 11.2989 2.26339 11.7678 2.73223C12.2366 3.20107 12.5 3.83696 12.5 4.5ZM17.5 5C17.5 5.53043 17.2893 6.03914 16.9142 6.41421C16.5391 6.78929 16.0304 7 15.5 7C14.9696 7 14.4609 6.78929 14.0858 6.41421C13.7107 6.03914 13.5 5.53043 13.5 5C13.5 4.46957 13.7107 3.96086 14.0858 3.58579C14.4609 3.21071 14.9696 3 15.5 3C16.0304 3 16.5391 3.21071 16.9142 3.58579C17.2893 3.96086 17.5 4.46957 17.5 5ZM4.5 7C5.03043 7 5.53914 6.78929 5.91421 6.41421C6.28929 6.03914 6.5 5.53043 6.5 5C6.5 4.46957 6.28929 3.96086 5.91421 3.58579C5.53914 3.21071 5.03043 3 4.5 3C3.96957 3 3.46086 3.21071 3.08579 3.58579C2.71071 3.96086 2.5 4.46957 2.5 5C2.5 5.53043 2.71071 6.03914 3.08579 6.41421C3.46086 6.78929 3.96957 7 4.5 7ZM6 9.25C6 8.56 6.56 8 7.25 8H12.75C13.44 8 14 8.56 14 9.25V14C14 15.0609 13.5786 16.0783 12.8284 16.8284C12.0783 17.5786 11.0609 18 10 18C8.93913 18 7.92172 17.5786 7.17157 16.8284C6.42143 16.0783 6 15.0609 6 14V9.25ZM5 9.25C5 8.787 5.14 8.358 5.379 8H3.25C2.56 8 2 8.56 2 9.25V13C1.99995 13.4281 2.09154 13.8513 2.2686 14.2411C2.44566 14.6309 2.7041 14.9782 3.02655 15.2599C3.34901 15.5415 3.728 15.7508 4.13807 15.8738C4.54813 15.9968 4.97978 16.0307 5.404 15.973C5.13691 15.3495 4.99945 14.6783 5 14V9.25ZM15 14C15 14.7 14.856 15.368 14.596 15.973C14.728 15.991 14.8627 16 15 16C15.7956 16 16.5587 15.6839 17.1213 15.1213C17.6839 14.5587 18 13.7956 18 13V9.25C18 8.56 17.44 8 16.75 8H14.621C14.861 8.358 15 8.787 15 9.25V14Z" fill="black"/>
</svg>
